<svg width="20" height="19" viewBox="0 0 20 19" fill="none" xmlns="http://www.w3.org/2000/svg">
<path d="M8.50352 1.27261L9.49448 0.306732C9.91407 -0.102244 10.5926 -0.102244 11.0077 0.306732L19.6853 8.76036C20.1049 9.16934 20.1049 9.83066 19.6853 10.2353L11.0077 18.6933C10.5881 19.1022 9.90961 19.1022 9.49448 18.6933L8.50352 17.7274C8.07946 17.3141 8.08838 16.6397 8.52137 16.2351L13.9002 11.2403H1.07131C0.477625 11.2403 0 10.7748 0 10.1961V8.80387C0 8.22521 0.477625 7.75968 1.07131 7.75968H13.9002L8.52137 2.76494C8.08392 2.36032 8.07499 1.68594 8.50352 1.27261Z" fill="#FEFEFE"/>
</svg>
