<svg width="62" height="52" viewBox="0 0 62 52" fill="none" xmlns="http://www.w3.org/2000/svg">
<path d="M61 10H26V5C26 4.73478 25.8946 4.48043 25.7071 4.29289C25.5196 4.10536 25.2652 4 25 4H22V1C22 0.734784 21.8946 0.48043 21.7071 0.292893C21.5196 0.105357 21.2652 0 21 0H5C4.73478 0 4.48043 0.105357 4.29289 0.292893C4.10536 0.48043 4 0.734784 4 1V4H1C0.734784 4 0.48043 4.10536 0.292893 4.29289C0.105357 4.48043 0 4.73478 0 5V47C0 47.2652 0.105357 47.5196 0.292893 47.7071C0.48043 47.8946 0.734784 48 1 48H4V51C4 51.2652 4.10536 51.5196 4.29289 51.7071C4.48043 51.8946 4.73478 52 5 52H21C21.2652 52 21.5196 51.8946 21.7071 51.7071C21.8946 51.5196 22 51.2652 22 51V48H25C25.2652 48 25.5196 47.8946 25.7071 47.7071C25.8946 47.5196 26 47.2652 26 47V41H57C57.1316 41.0008 57.2621 40.9755 57.3839 40.9258C57.5057 40.876 57.6166 40.8027 57.71 40.71L61.71 36.71C61.8027 36.6166 61.876 36.5057 61.9258 36.3839C61.9755 36.2621 62.0008 36.1316 62 36V11C62 10.7348 61.8946 10.4804 61.7071 10.2929C61.5196 10.1054 61.2652 10 61 10ZM60 16H54V12H60V16ZM34 33V18H52V33H34ZM52 35V39H34V35H52ZM24 38H2V14H24V38ZM26 18H32V33H26V18ZM34 16V12H52V16H34ZM54 18H60V33H54V18ZM32 12V16H26V12H32ZM6 2H20V4H6V2ZM24 6V12H2V6H24ZM20 50H6V48H20V50ZM2 46V40H24V46H2ZM26 35H32V39H26V35ZM56.59 39H54V35H60V35.66C59.36 36.23 58.34 37.24 56.59 39Z" fill="#363532"/>
<path d="M30 36H28V38H30V36Z" fill="#363532"/>
<path d="M38 36H36V38H38V36Z" fill="#363532"/>
<path d="M42 36H40V38H42V36Z" fill="#363532"/>
<path d="M46 36H44V38H46V36Z" fill="#363532"/>
<path d="M50 36H48V38H50V36Z" fill="#363532"/>
<path d="M30 13H28V15H30V13Z" fill="#363532"/>
<path d="M38 13H36V15H38V13Z" fill="#363532"/>
<path d="M42 13H40V15H42V13Z" fill="#363532"/>
<path d="M46 13H44V15H46V13Z" fill="#363532"/>
<path d="M50 13H48V15H50V13Z" fill="#363532"/>
<path d="M58 13H56V15H58V13Z" fill="#363532"/>
<path d="M5 36H9C9.26522 36 9.51957 35.8946 9.70711 35.7071C9.89464 35.5196 10 35.2652 10 35V31C10 30.7348 9.89464 30.4804 9.70711 30.2929C9.51957 30.1054 9.26522 30 9 30H5C4.73478 30 4.48043 30.1054 4.29289 30.2929C4.10536 30.4804 4 30.7348 4 31V35C4 35.2652 4.10536 35.5196 4.29289 35.7071C4.48043 35.8946 4.73478 36 5 36ZM6 32H8V34H6V32Z" fill="#363532"/>
<path d="M22 16H4V18H22V16Z" fill="#363532"/>
<path d="M18 20H4V22H18V20Z" fill="#363532"/>
<path d="M22 20H20V22H22V20Z" fill="#363532"/>
</svg>
