<svg xmlns="http://www.w3.org/2000/svg" width="3613" height="3608" viewBox="0 0 3613 3608" fill="none"><path d="M1289.01 3607.49C578.209 3607.49 0 3029.25 0 2318.69C0 1608.13 578.216 1029.55 1289.01 1029.55C1999.8 1029.55 2577.94 1607.79 2577.94 2318.69C2577.94 3029.58 1999.7 3607.49 1289.01 3607.49ZM1289.01 1103.22C618.922 1103.22 73.7421 1648.79 73.7421 2318.48C73.7421 2988.2 619.313 3533.68 1289.01 3533.68C1958.72 3533.71 2504.27 2988.59 2504.27 2318.62C2504.27 1648.65 1959.12 1103.15 1289.01 1103.15V1103.22Z" fill="#84827C"></path><path d="M1289.01 2538.43C1230.68 2538.45 1174.7 2515.28 1133.45 2474.02C1092.19 2432.79 1069.02 2376.84 1069.02 2318.49C1069.02 2260.17 1092.19 2204.22 1133.45 2162.96C1174.71 2121.72 1230.69 2098.55 1289.01 2098.58C1347.35 2098.61 1403.28 2121.8 1444.51 2163.06C1485.74 2204.35 1508.89 2260.3 1508.86 2318.65C1508.76 2376.92 1485.56 2432.77 1444.35 2473.97C1403.15 2515.18 1347.28 2538.35 1289.01 2538.43ZM1289.01 2172.31C1250.25 2172.28 1213.04 2187.66 1185.63 2215.07C1158.2 2242.48 1142.77 2279.63 1142.74 2318.41C1142.71 2357.17 1158.09 2394.38 1185.47 2421.81C1212.88 2449.25 1250.04 2464.68 1288.82 2464.71C1327.58 2464.73 1364.79 2449.36 1392.22 2421.97C1419.66 2394.59 1435.09 2357.41 1435.14 2318.65C1435.14 2279.87 1419.74 2242.69 1392.35 2215.25C1364.94 2187.82 1327.79 2172.36 1289.01 2172.31Z" fill="#84827C"></path><path d="M1185.4 1936.22C1159.23 1936.3 1133.61 1928.51 1111.89 1913.89C1090.17 1899.25 1073.34 1878.45 1063.55 1854.17L922.438 1501.56C908.694 1467.12 910.195 1428.46 926.546 1395.19C942.924 1361.93 972.65 1337.15 1008.33 1327.05C1191.86 1275.33 1386.12 1275.33 1569.67 1327.05C1605.34 1337.13 1635.07 1361.91 1651.45 1395.19C1667.8 1428.47 1669.28 1467.12 1655.48 1501.56L1514.37 1854.17C1502.87 1882.64 1481.75 1906.15 1454.71 1920.69C1427.66 1935.19 1396.41 1939.77 1366.32 1933.64C1315.21 1923.53 1262.63 1923.53 1211.49 1933.64C1202.91 1935.38 1194.17 1936.25 1185.4 1936.22ZM1288.99 1361.98C1200.91 1361.93 1113.23 1374.04 1028.45 1397.98C1012.86 1402.37 999.878 1413.19 992.743 1427.73C985.607 1442.29 984.976 1459.17 991.005 1474.2L1131.66 1826.82C1142.25 1852.51 1169.63 1867 1196.83 1861.34C1257.47 1849.3 1319.85 1849.3 1380.48 1861.34C1407.68 1867.05 1435.09 1852.54 1445.65 1826.82L1586.76 1474.2C1592.76 1459.14 1592.1 1442.26 1584.97 1427.73C1577.81 1413.19 1564.83 1402.37 1549.24 1397.98C1464.56 1374.04 1376.98 1361.95 1288.99 1361.98Z" fill="#84827C"></path><path d="M1289.01 3345.08C1194.14 3345.23 1099.69 3332.28 1008.35 3306.58C972.643 3296.47 942.916 3271.69 926.536 3238.41C910.159 3205.13 908.684 3166.45 922.455 3132.01L1063.56 2779.4V2779.37C1075.07 2750.93 1096.19 2727.42 1123.23 2712.91C1150.27 2698.43 1181.52 2693.85 1211.59 2699.98C1262.7 2710.1 1315.31 2710.1 1366.42 2699.98C1396.48 2693.85 1427.74 2698.43 1454.78 2712.91C1481.82 2727.42 1502.94 2750.93 1514.47 2779.37L1655.58 3131.99V3132.01C1669.37 3166.45 1667.9 3205.13 1651.52 3238.41C1635.12 3271.72 1605.39 3296.5 1569.68 3306.58C1478.34 3332.28 1383.91 3345.23 1289.01 3345.08ZM1185.79 2770.84V2770.81C1162.33 2770.71 1141.14 2784.84 1132.26 2806.57L990.947 3159.13C984.917 3174.2 985.549 3191.1 992.711 3205.63C999.873 3220.19 1012.85 3231.02 1028.47 3235.44C1198.88 3283.31 1379.22 3283.31 1549.62 3235.44C1565.21 3230.99 1578.17 3220.14 1585.3 3205.61C1592.44 3191.07 1593.1 3174.17 1587.09 3159.13L1445.98 2806.52H1445.96C1435.37 2780.82 1408.02 2766.29 1380.79 2771.92C1320.18 2783.96 1257.77 2783.96 1197.14 2771.92C1193.32 2771.21 1189.39 2770.84 1185.5 2770.82L1185.79 2770.84Z" fill="#84827C"></path><path d="M794.313 2281.81C788.099 2281.81 781.884 2281.37 775.75 2280.5L399.752 2226.39V2226.36C363.021 2221.07 330.29 2200.45 309.651 2169.62C289.011 2138.79 282.425 2100.66 291.509 2064.69C338.535 1879.91 435.67 1711.71 572.194 1578.64C598.788 1552.75 635.098 1539.38 672.117 1541.85C709.138 1544.3 743.365 1562.36 766.303 1591.54L1001.12 1889.97C1020 1914.19 1029.82 1944.23 1028.85 1974.93C1027.9 2005.61 1016.23 2034.99 995.88 2057.97C978.738 2077.49 963.572 2098.66 950.618 2121.17C937.637 2143.63 926.894 2167.35 918.547 2191.94C909.806 2218.01 893.139 2240.68 870.863 2256.8C848.587 2272.94 821.81 2281.68 794.324 2281.81L794.313 2281.81ZM663.289 1615.25H663.315C648.465 1615.23 634.246 1621.02 623.635 1631.4C496.905 1755.02 406.75 1911.21 363.017 2082.75C359.067 2098.47 361.99 2115.11 370.995 2128.54C380.026 2142 394.323 2151 410.359 2153.32L786.356 2207.43C813.898 2211.17 840.202 2194.68 848.864 2168.27C868.77 2109.74 899.972 2055.71 940.732 2009.24C959.216 1988.51 960.349 1957.55 943.391 1935.51L708.576 1637C698.596 1624.23 683.615 1616.33 667.421 1615.33L663.289 1615.25Z" fill="#84827C"></path><path d="M1914.47 3091.63H1905.78C1868.78 3089.18 1834.56 3071.14 1811.62 3042.02L1576.72 2743.52H1576.75C1557.87 2719.29 1548.07 2689.25 1549.05 2658.6C1549.99 2627.92 1561.63 2598.54 1581.96 2575.55C1616.37 2536.43 1642.68 2490.88 1659.37 2441.53C1669.11 2412.43 1688.7 2387.63 1714.8 2371.49C1740.89 2355.32 1771.8 2348.79 1802.19 2353.06L2178.18 2407.16C2214.92 2412.43 2247.67 2433.02 2268.31 2463.85C2288.96 2494.69 2295.54 2532.81 2286.4 2568.78C2239.43 2753.57 2142.29 2921.82 2005.74 3054.92C1981.26 3078.56 1948.5 3091.73 1914.46 3091.62L1914.47 3091.63ZM1869.49 2995.78C1879.5 3008.53 1894.45 3016.43 1910.62 3017.51C1926.79 3018.61 1942.67 3012.77 1954.28 3001.47C2081.03 2877.88 2171.22 2721.68 2214.9 2550.12C2218.9 2534.42 2216.03 2517.75 2207.02 2504.3C2197.99 2490.84 2183.7 2481.84 2167.66 2479.58L1791.66 2425.39C1764.09 2421.67 1737.79 2438.16 1729.13 2464.59C1719.23 2493.79 1706.46 2521.97 1691.03 2548.64C1675.65 2575.37 1657.64 2600.49 1637.26 2623.63C1618.78 2644.38 1617.67 2675.34 1634.63 2697.36L1869.49 2995.78Z" fill="#84827C"></path><path d="M663.545 3091.63C629.473 3091.68 596.744 3078.47 572.284 3054.77C435.733 2921.67 338.601 2753.44 291.598 2568.63C282.567 2532.69 289.202 2494.62 309.845 2463.86C330.462 2433.08 363.165 2412.49 399.819 2407.17L775.816 2353.06C806.228 2348.79 837.167 2355.32 863.262 2371.47C889.356 2387.63 908.971 2412.41 918.714 2441.53C935.434 2490.85 961.712 2536.4 996.049 2575.56C1016.4 2598.54 1028.07 2627.9 1029.01 2658.57C1029.99 2689.28 1020.17 2719.32 1001.29 2743.52L766.473 3042.03C743.486 3071.15 709.257 3089.19 672.24 3091.63C669.291 3091.56 666.415 3091.63 663.545 3091.63ZM410.375 2479.71C394.339 2482.03 380.042 2491.03 371.011 2504.46C362.006 2517.92 359.083 2534.56 363.033 2550.28C406.715 2721.85 496.894 2878.01 623.651 3001.61C635.263 3012.93 651.14 3018.8 667.307 3017.7C683.5 3016.62 698.456 3008.72 708.436 2995.95L943.251 2697.52V2697.49C960.208 2675.48 959.103 2644.52 940.592 2623.76C899.859 2577.32 868.629 2523.26 848.751 2464.75C840.062 2438.32 813.784 2421.84 786.217 2425.52L410.219 2479.71L410.375 2479.71Z" fill="#84827C"></path><path d="M1783.7 2281.81C1756.18 2281.71 1729.4 2272.96 1707.1 2256.85C1684.83 2240.74 1668.14 2218.04 1659.39 2191.95C1651.05 2167.35 1640.28 2143.63 1627.27 2121.17C1614.32 2098.66 1599.15 2077.49 1581.98 2057.98C1561.66 2034.99 1550.02 2005.61 1549.04 1974.91C1548.09 1944.23 1557.89 1914.19 1576.77 1889.96L1811.67 1591.53H1811.64C1834.57 1562.36 1868.8 1544.3 1905.8 1541.85C1942.82 1539.4 1979.13 1552.75 2005.69 1578.63C2142.22 1711.7 2239.35 1879.9 2286.38 2064.69C2295.49 2100.66 2288.91 2138.81 2268.26 2169.64C2247.62 2200.47 2214.87 2221.09 2178.14 2226.36L1802.14 2280.47V2280.49C1796.03 2281.36 1789.87 2281.81 1783.71 2281.81L1783.7 2281.81ZM1914.64 1615.25H1910.74C1894.52 1616.23 1879.52 1624.13 1869.51 1636.92L1634.69 1935.43V1935.46C1617.74 1957.47 1618.9 1988.46 1637.43 2009.19C1678.14 2055.69 1709.31 2109.69 1729.22 2168.2C1737.88 2194.63 1764.19 2211.09 1791.73 2207.35L2167.73 2153.24C2183.79 2150.95 2198.08 2141.95 2207.09 2128.49C2216.12 2115.04 2218.99 2098.37 2214.99 2082.68C2171.28 1911.11 2081.1 1754.91 1954.37 1631.26C1943.71 1621 1929.44 1615.33 1914.64 1615.49L1914.64 1615.25Z" fill="#84827C"></path><path d="M572.277 2251.01C570.487 2251.03 568.722 2250.9 566.958 2250.64C546.842 2247.72 532.887 2229.02 535.783 2208.91C563.588 2015.09 665.405 1839.6 819.839 1719.21C835.874 1706.66 859.045 1709.47 871.605 1725.48C884.164 1741.52 881.347 1764.69 865.338 1777.25C725.76 1885.94 633.785 2044.5 608.696 2219.6C605.984 2237.64 590.498 2250.98 572.277 2251.01Z" fill="#84827C"></path><path d="M840.755 2924.33C832.487 2924.35 824.457 2921.54 817.979 2916.37C663.471 2795.25 562.073 2618.86 535.164 2424.39C532.452 2404.22 546.591 2385.66 566.761 2382.92C586.93 2380.21 605.493 2394.35 608.231 2414.52C632.534 2590.12 724.088 2749.42 863.612 2858.79C875.987 2868.51 880.806 2884.99 875.645 2899.84C870.485 2914.69 856.476 2924.64 840.757 2924.62L840.755 2924.33Z" fill="#84827C"></path><path d="M1289.01 3079.63C1191.66 3079.79 1095.19 3061.2 1004.88 3024.83C985.97 3017.22 976.833 2995.74 984.443 2976.86C992.079 2957.95 1013.56 2948.82 1032.44 2956.43C1197.14 3022.39 1380.9 3022.39 1545.57 2956.43C1564.48 2948.84 1585.94 2957.98 1593.55 2976.89C1601.13 2995.79 1591.97 3017.25 1573.09 3024.84C1482.8 3061.17 1386.35 3079.79 1289.01 3079.63Z" fill="#84827C"></path><path d="M1737.19 2924.33C1721.47 2924.35 1707.46 2914.4 1702.3 2899.55C1697.17 2884.7 1701.98 2868.22 1714.33 2858.5C1853.8 2749.2 1945.35 2590.01 1969.74 2414.52C1971.08 2404.83 1976.22 2396.08 1984.04 2390.19C1991.83 2384.29 2001.65 2381.73 2011.34 2383.08C2031.51 2385.89 2045.6 2404.51 2042.78 2424.68C2015.87 2619.13 1914.5 2795.52 1760.05 2916.66C1753.52 2921.69 1745.46 2924.4 1737.19 2924.33Z" fill="#84827C"></path><path d="M2005.13 2247.23C1986.91 2247.21 1971.42 2233.86 1968.71 2215.82C1942.78 2042.2 1851.1 1885.19 1712.68 1777.24C1697.46 1764.47 1695.09 1741.93 1707.36 1726.29C1719.6 1710.65 1742.04 1707.51 1758.1 1719.2C1911.42 1838.74 2012.93 2012.63 2041.62 2204.92C2043.09 2214.59 2040.65 2224.46 2034.8 2232.33C2028.98 2240.21 2020.27 2245.42 2010.6 2246.87C2008.79 2247.13 2006.97 2247.26 2005.13 2247.23Z" fill="#84827C"></path><path d="M1558.02 1682.78C1553.34 1682.75 1548.68 1681.86 1544.33 1680.12C1381.42 1615.19 1199.93 1614.74 1036.73 1678.88C1017.9 1685.86 996.972 1676.51 989.599 1657.84C982.226 1639.17 991.152 1618.06 1009.66 1610.32C1190.37 1539.25 1391.38 1539.75 1571.74 1611.71C1588.15 1618.29 1597.54 1635.57 1594.2 1652.89C1590.86 1670.24 1575.69 1682.78 1558.02 1682.78Z" fill="#84827C"></path><path d="M2395.61 3258.66H2160.13C2139.78 3258.66 2123.27 3242.15 2123.27 3221.8C2123.27 3201.45 2139.78 3184.94 2160.13 3184.94H2395.61C2769.03 3184.94 3057.95 3078.62 3254.36 2868.86C3566.75 2535.34 3538.73 2049.48 3538.42 2044.62V2042.2V1570.36C3538.42 1330.22 3459.98 1133.24 3305.23 984.822C3202.02 885.816 3005.98 754.954 2658.74 693.897V693.924C2533.67 671.622 2406.76 661.458 2279.74 663.539H272.792C252.439 663.539 235.929 647.029 235.929 626.675V36.8728C235.929 16.5195 252.438 0.00976562 272.792 0.00976562H2278.12C2291.68 0.00976562 2614.23 1.69492 2942.18 150.777C3136.37 239.038 3291.27 360.814 3402.43 512.397C3541.69 702.32 3612.34 939.111 3612.34 1216.18L3612.79 1485.2H3612.76C3612.79 1490.28 3611.76 1495.29 3609.76 1499.95C3611.13 1522.91 3611.84 1546.23 3611.89 1569.99V2040.64C3613.95 2075.58 3637.04 2567.62 3307.99 2918.94C3097.29 3144.41 2790.51 3258.68 2395.65 3258.68L2395.61 3258.66ZM2315.41 589.249C2434.16 589.881 2552.67 600.493 2669.66 621.004C3036 685.066 3245.09 825.224 3355.99 931.469C3433.69 1005.3 3495.8 1093.98 3538.62 1192.25C3534.64 941.58 3468.95 727.782 3343.25 556.368C3239.38 414.735 3094.22 300.832 2911.67 217.889C2598.18 75.3857 2281.29 73.7545 2278.13 73.7545H309.677V589.828H2277.39C2281.08 589.67 2294.35 589.249 2315.44 589.249L2315.41 589.249Z" fill="#84827C"></path><path d="M2502.99 2670.74C2482.63 2670.74 2466.12 2654.24 2466.12 2633.88C2466.12 2613.53 2482.63 2597.02 2502.99 2597.02C2740.46 2597.02 2942.39 2549.26 3103.32 2455.02C3230.84 2380.48 3336.21 2273.31 3408.62 2144.56C3487.12 2004.08 3531.85 1847.26 3539.27 1686.51C3539.27 1666.16 3555.78 1649.65 3576.14 1649.65C3585.91 1649.65 3595.28 1653.52 3602.2 1660.44C3609.1 1667.37 3613 1676.74 3613 1686.51C3613 1696.54 3611.53 1935.86 3474.24 2178.34C3395.77 2318.87 3281.26 2435.93 3142.47 2517.47C2969.66 2619.22 2754.55 2670.74 2502.99 2670.74Z" fill="#84827C"></path><path d="M2229.25 2668.86H1941.72C1921.35 2668.86 1904.86 2652.35 1904.86 2631.99C1904.86 2611.64 1921.34 2595.13 1941.72 2595.13H2229.25C2249.61 2595.13 2266.11 2611.64 2266.11 2631.99C2266.11 2652.35 2249.61 2668.86 2229.25 2668.86Z" fill="#84827C"></path><path d="M863.808 663.529C843.429 663.529 826.945 647.02 826.945 626.666V36.863C826.945 16.5098 843.428 0 863.808 0C884.161 0 900.671 16.5091 900.671 36.863V626.666C900.671 636.434 896.774 645.808 889.875 652.733C882.951 659.658 873.577 663.529 863.808 663.529Z" fill="#84827C"></path><path d="M1452.4 663.529C1432.04 663.529 1415.53 647.02 1415.53 626.666V36.863C1415.53 16.5098 1432.04 0 1452.4 0C1472.75 0 1489.26 16.5091 1489.26 36.863V626.666C1489.26 636.434 1485.39 645.808 1478.46 652.733C1471.54 659.658 1462.17 663.529 1452.4 663.529Z" fill="#84827C"></path><path d="M2042.2 663.529C2021.85 663.529 2005.34 647.02 2005.34 626.666V36.863C2005.34 16.5098 2021.85 0 2042.2 0C2062.55 0 2079.06 16.5091 2079.06 36.863V626.666C2079.06 636.434 2075.19 645.808 2068.27 652.733C2061.34 659.658 2051.97 663.529 2042.2 663.529Z" fill="#84827C"></path><path d="M2576.66 680.853C2572.4 680.827 2568.16 680.09 2564.13 678.642C2554.91 675.324 2547.41 668.452 2543.28 659.605C2539.11 650.732 2538.67 640.594 2542.01 631.379C2619.06 419.259 2595.75 90.6812 2595.46 87.3648C2593.96 67.0115 2609.23 49.2912 2629.59 47.7637C2649.97 46.2629 2667.69 61.5611 2669.19 81.9143C2670.21 96.0008 2693.96 429.453 2611.39 656.969C2605.94 671.398 2592.09 680.959 2576.66 680.853Z" fill="#84827C"></path><path d="M3071.83 819.842C3063.43 819.869 3055.27 816.972 3048.74 811.654C3033.02 798.91 3030.51 775.871 3043.15 760.046C3145.71 632.952 3148.79 343.787 3148.87 340.916C3148.87 320.562 3165.38 304.053 3185.74 304.053C3195.5 304.053 3204.88 307.95 3211.8 314.848C3218.7 321.773 3222.6 331.147 3222.6 340.916C3222.6 353.818 3219.07 658.964 3100.58 805.909C3093.6 814.678 3083.02 819.816 3071.83 819.842Z" fill="#84827C"></path><path d="M3371.31 1036.96C3354.14 1036.96 3339.24 1025.08 3335.4 1008.34C3331.55 991.589 3339.8 974.396 3355.25 966.918C3466.87 912.941 3480.01 813.778 3480.06 812.754C3482.48 792.532 3500.83 778.129 3521.06 780.552C3541.28 782.975 3555.71 801.327 3553.28 821.522C3552.63 827.262 3534.93 961.598 3387.4 1033.27C3382.4 1035.69 3376.89 1036.96 3371.31 1036.96Z" fill="#84827C"></path><path d="M3514.68 2518.27C3498.1 2518.25 3483.54 2507.13 3479.17 2491.13C3449.68 2382.91 3329.21 2341.3 3328.03 2340.88C3318.63 2337.86 3310.83 2331.22 3306.38 2322.43C3301.93 2313.63 3301.2 2303.42 3304.33 2294.07C3307.46 2284.7 3314.23 2277.01 3323.08 2272.66C3331.92 2268.34 3342.17 2267.74 3351.46 2270.98C3357.94 2273.19 3510.42 2325.9 3550.52 2471.66C3553.57 2482.75 3551.25 2494.65 3544.25 2503.79C3537.27 2512.93 3526.43 2518.27 3514.92 2518.27L3514.68 2518.27Z" fill="#84827C"></path><path d="M3272.29 2940.37C3257.57 2940.45 3244.2 2931.76 3238.3 2918.25C3181.03 2786.68 3104.83 2664.14 3012.12 2554.58C3005.4 2547.34 3001.88 2537.7 3002.32 2527.83C3002.8 2517.98 3007.2 2508.71 3014.54 2502.1C3021.89 2495.49 3031.58 2492.12 3041.43 2492.73C3051.27 2493.33 3060.49 2497.89 3066.97 2505.34C3165.34 2620.77 3245.94 2750.21 3306.12 2889.45C3314.13 2908.14 3305.44 2929.78 3286.74 2937.79C3282.16 2939.63 3277.24 2940.53 3272.29 2940.37Z" fill="#84827C"></path><path d="M2632 3243.36H2629.5C2609.2 3241.96 2593.88 3224.43 2595.22 3204.13C2613.28 2936.34 2595.22 2639.23 2595.22 2636.44C2593.96 2616.09 2609.44 2598.55 2629.79 2597.29C2650.14 2596.02 2667.68 2611.51 2668.94 2631.86C2668.94 2634.89 2687.3 2936.55 2668.94 3209.21C2667.5 3228.53 2651.38 3243.44 2632 3243.36Z" fill="#84827C"></path></svg>