<svg width="44" height="43" viewBox="0 0 44 43" fill="none" xmlns="http://www.w3.org/2000/svg">
<path d="M19.3295 0.0456706C14.614 0.358704 10.0073 2.26853 6.38442 5.73634C-0.861237 12.6719 -2.08891 23.8294 3.46854 32.1791C9.02604 40.5288 19.7759 43.6877 28.9707 39.6805C29.0726 39.643 29.1657 39.5853 29.2444 39.5105C29.3231 39.4358 29.3856 39.3458 29.4283 39.246C29.4709 39.1462 29.4927 39.0387 29.4924 38.9302C29.492 38.8217 29.4695 38.7144 29.4261 38.6149C29.3828 38.5155 29.3196 38.4259 29.2404 38.3517C29.1612 38.2775 29.0677 38.2203 28.9656 38.1836C28.8635 38.1468 28.755 38.1313 28.6467 38.138C28.5384 38.1447 28.4326 38.1735 28.3358 38.2225C19.8389 41.9255 9.92101 39.0014 4.78539 31.2856C-0.350186 23.5698 0.782246 13.2977 7.47788 6.88858C14.1736 0.479515 24.4967 -0.202003 31.9807 5.26604C39.4646 10.7341 41.9422 20.7718 37.8712 29.0987C37.8257 29.1928 37.7991 29.2951 37.7931 29.3996C37.787 29.504 37.8016 29.6087 37.836 29.7075C37.8704 29.8063 37.9239 29.8974 37.9935 29.9755C38.0631 30.0536 38.1474 30.1172 38.2416 30.1627C38.3358 30.2083 38.438 30.2349 38.5425 30.241C38.6469 30.247 38.7515 30.2324 38.8503 30.198C38.9491 30.1636 39.0402 30.11 39.1183 30.0404C39.1965 29.9708 39.2601 29.8865 39.3057 29.7924C43.711 20.7815 41.02 9.9017 32.9213 3.98446C28.8719 1.02587 24.0451 -0.267243 19.3295 0.0456706Z" fill="#E0BB65"/>
<path d="M20.7051 11.9453C15.8764 11.9453 11.9457 15.876 11.9457 20.7047C11.9457 25.5334 15.8764 29.4641 20.7051 29.4641C25.5338 29.4641 29.4645 25.5334 29.4645 20.7047C29.4645 15.876 25.5338 11.9453 20.7051 11.9453ZM20.7051 13.5326C24.673 13.5326 27.8655 16.7368 27.8654 20.7047C27.8655 24.6726 24.673 27.8651 20.7051 27.8651C16.7372 27.8651 13.5329 24.6726 13.533 20.7047C13.5329 16.7368 16.7372 13.5326 20.7051 13.5326Z" fill="#E0BB65"/>
<path d="M20.7051 16.7197C18.5153 16.7197 16.7193 18.5158 16.7193 20.7055C16.7193 22.8953 18.5153 24.6796 20.7051 24.6796C22.8949 24.6796 24.6792 22.8953 24.6792 20.7055C24.6792 18.5158 22.8949 16.7197 20.7051 16.7197ZM20.7051 18.3188C22.0341 18.3188 23.0919 19.3765 23.0919 20.7055C23.0919 22.0346 22.0341 23.0923 20.7051 23.0923C19.3761 23.0923 18.3183 22.0346 18.3183 20.7055C18.3183 19.3765 19.3761 18.3188 20.7051 18.3188Z" fill="#E0BB65"/>
<path d="M5.56146 19.9054C5.45634 19.9065 5.35248 19.9284 5.25588 19.9699C5.15928 20.0114 5.07184 20.0716 4.99861 20.147C4.92538 20.2224 4.8678 20.3116 4.8292 20.4093C4.7906 20.5071 4.77173 20.6116 4.7737 20.7167C4.77376 27.8179 9.60345 34.0207 16.5078 35.8017C16.6106 35.8334 16.7188 35.844 16.8259 35.8327C16.9329 35.8215 17.0366 35.7887 17.1306 35.7363C17.2246 35.6838 17.307 35.6129 17.3728 35.5277C17.4386 35.4426 17.4865 35.345 17.5135 35.2408C17.5406 35.1366 17.5462 35.0279 17.5301 34.9215C17.514 34.8151 17.4765 34.713 17.4199 34.6215C17.3633 34.53 17.2886 34.4508 17.2006 34.3889C17.1125 34.327 17.0128 34.2837 16.9075 34.2614C10.6951 32.659 6.37279 27.0965 6.37273 20.7167C6.37474 20.6096 6.35514 20.5032 6.31508 20.4038C6.27502 20.3045 6.21534 20.2143 6.1396 20.1385C6.06386 20.0628 5.97362 20.0032 5.87429 19.9631C5.77495 19.923 5.66855 19.9034 5.56146 19.9054Z" fill="#E0BB65"/>
<path d="M24.5733 5.5742C24.389 5.59862 24.2191 5.68676 24.0929 5.82332C23.9668 5.95987 23.8923 6.13625 23.8826 6.32191C23.8728 6.50757 23.9283 6.69075 24.0394 6.8398C24.1505 6.98884 24.3103 7.09433 24.491 7.13796C30.7035 8.74045 35.0376 14.3146 35.0376 20.6945C35.0283 20.8043 35.0419 20.9149 35.0776 21.0193C35.1133 21.1236 35.1702 21.2192 35.2448 21.3003C35.3194 21.3815 35.4101 21.4463 35.511 21.4907C35.6119 21.535 35.721 21.5579 35.8312 21.5579C35.9415 21.5579 36.0505 21.535 36.1514 21.4907C36.2524 21.4463 36.343 21.3815 36.4176 21.3003C36.4922 21.2192 36.5492 21.1236 36.5848 21.0193C36.6205 20.9149 36.6341 20.8043 36.6249 20.6945C36.6249 13.5932 31.7952 7.37864 24.8908 5.59772C24.7877 5.56841 24.6797 5.56078 24.5733 5.5742Z" fill="#E0BB65"/>
<path fill-rule="evenodd" clip-rule="evenodd" d="M34.7319 29.8038C33.1499 28.8246 31.0518 30.0565 31.0518 31.9201V40.5384C31.0516 42.4021 33.1498 43.634 34.7319 42.6548L41.9275 38.1987C43.3614 37.311 43.3614 35.1476 41.9275 34.2599L34.7319 29.8038ZM33.8853 31.1559L41.0927 35.612C41.5508 35.8955 41.5508 36.563 41.0927 36.8465L33.8853 41.3027C33.3025 41.6633 32.6507 41.2786 32.6508 40.5384V31.9201C32.6508 31.1794 33.3025 30.7952 33.8853 31.1559Z" fill="#E0BB65"/>
</svg>
