<svg width="16" height="12" viewBox="0 0 16 12" fill="none" xmlns="http://www.w3.org/2000/svg">
<path fill-rule="evenodd" clip-rule="evenodd" d="M1.55459 0C0.697142 0 0 0.704467 0 1.56596V9.86899C0 10.7305 0.697142 11.4349 1.55459 11.4349H13.7919C14.6493 11.4349 15.3444 10.7305 15.3444 9.86899V9.03202C15.3463 9.01382 15.3463 8.99546 15.3444 8.97726V1.56596C15.3444 0.704472 14.6493 5.00679e-06 13.7919 5.00679e-06L1.55459 0ZM1.55459 0.529046H13.7919C14.3627 0.529046 14.8148 0.985773 14.8148 1.56596V8.44356L11.0387 5.35246C10.9897 5.31209 10.9279 5.29066 10.8644 5.29209C10.801 5.29352 10.7401 5.31772 10.693 5.36026L8.58771 7.25321L5.31733 3.85626C5.29312 3.83117 5.2642 3.81112 5.23222 3.79725C5.20024 3.78338 5.16583 3.77596 5.13097 3.77543C5.09612 3.7749 5.0615 3.78127 5.02911 3.79416C4.99672 3.80705 4.9672 3.82622 4.94224 3.85056L0.529046 8.08655V1.56595C0.529046 0.985763 0.983741 0.529046 1.55459 0.529046ZM8.43581 2.21022C7.81689 2.21022 7.31262 2.722 7.31262 3.34271C7.31262 3.96341 7.81689 4.47365 8.43581 4.47365C9.05473 4.47365 9.56055 3.96341 9.56055 3.34271C9.56055 2.722 9.05473 2.21022 8.43581 2.21022ZM8.43581 2.73978C8.76614 2.73978 9.03099 3.00527 9.03099 3.34271C9.03099 3.68014 8.76614 3.94408 8.43581 3.94408C8.10548 3.94408 7.84218 3.68014 7.84218 3.34271C7.84218 3.00527 8.10548 2.73978 8.43581 2.73978ZM5.1179 4.41475L8.97261 8.41618C9.02141 8.46622 9.08805 8.49492 9.15794 8.49598C9.22784 8.49705 9.29531 8.47041 9.34562 8.42188C9.39596 8.37335 9.42503 8.30688 9.42649 8.23698C9.42795 8.16708 9.40168 8.09945 9.35343 8.04886L8.95406 7.63399L10.8786 5.90477L14.8149 9.12865V9.869C14.8149 10.4492 14.3628 10.9054 13.7919 10.9054H1.55459C0.983741 10.9054 0.529046 10.4492 0.529046 9.869V8.81969L5.1179 4.41475Z" fill="#E0BB65"/>
</svg>
