<svg width="40" height="25" viewBox="0 0 40 25" fill="none" xmlns="http://www.w3.org/2000/svg">
<path d="M32.0906 24.8813H7.89065C5.95396 24.879 4.08558 24.1654 2.64049 22.876C1.1954 21.5866 0.274287 19.8113 0.0521544 17.8874C-0.169978 15.9635 0.322347 14.025 1.43559 12.4403C2.54884 10.8555 4.20543 9.73487 6.09065 9.2913C6.82806 7.40727 8.1025 5.78126 9.75578 4.61507C11.4091 3.44888 13.3684 2.79386 15.3907 2.7313C15.8008 2.03234 16.3596 1.43207 17.0274 0.972966C17.6952 0.513864 18.4558 0.207151 19.2553 0.0745397C20.0547 -0.0580719 20.8736 -0.0133435 21.6539 0.205559C22.4342 0.424462 23.1568 0.812191 23.7706 1.3413C24.6329 1.1177 25.5199 1.00347 26.4106 1.0013C29.0191 0.992696 31.5331 1.97696 33.4423 3.75431C35.3515 5.53166 36.5129 7.96891 36.6906 10.5713C38.0517 11.5437 39.0686 12.9235 39.5943 14.5114C40.1201 16.0994 40.1276 17.8134 39.6157 19.4059C39.1037 20.9984 38.0989 22.387 36.7464 23.3712C35.3938 24.3553 33.7634 24.8842 32.0906 24.8813ZM15.7407 4.4413C13.928 4.43503 12.1595 4.99965 10.6858 6.05508C9.21216 7.11052 8.10824 8.60317 7.53065 10.3213C7.48183 10.4658 7.3946 10.5942 7.27833 10.6929C7.16206 10.7915 7.02113 10.8567 6.87065 10.8813C5.33451 11.1307 3.94867 11.9495 2.98915 13.1748C2.02963 14.4 1.56683 15.9418 1.69294 17.4929C1.81905 19.044 2.52481 20.4908 3.66965 21.5449C4.81449 22.5991 6.3144 23.1833 7.87065 23.1813H32.0906C33.4324 23.1832 34.7385 22.7491 35.8122 21.9444C36.8858 21.1396 37.6689 20.0078 38.0435 18.7193C38.4181 17.4309 38.3639 16.0556 37.889 14.8006C37.4141 13.5457 36.5443 12.479 35.4106 11.7613C35.2926 11.6886 35.195 11.5872 35.1268 11.4665C35.0585 11.3459 35.022 11.2099 35.0206 11.0713C34.9833 9.73671 34.6362 8.42909 34.0066 7.25174C33.377 6.0744 32.4822 5.05961 31.393 4.28754C30.3038 3.51547 29.0499 3.00729 27.7305 2.80315C26.4111 2.59901 25.0623 2.70451 23.7906 3.1113C23.6395 3.15944 23.478 3.16434 23.3243 3.12547C23.1705 3.08659 23.0307 3.00548 22.9207 2.8913C22.5648 2.51751 22.1366 2.2201 21.6621 2.01723C21.1876 1.81436 20.6767 1.71027 20.1606 1.7113C19.4255 1.71145 18.7059 1.9226 18.0873 2.31967C17.4686 2.71674 16.9769 3.28304 16.6707 3.9513C16.6018 4.10167 16.4901 4.22838 16.3496 4.31554C16.2091 4.40271 16.0459 4.44646 15.8806 4.4413H15.7407Z" fill="#E0BB65"/>
</svg>
