<svg width="90" height="86" viewBox="0 0 90 86" fill="none" xmlns="http://www.w3.org/2000/svg">
<path d="M49.3451 2.69978L59.496 23.2513C60.2019 24.6806 61.5667 25.6711 63.1456 25.8999L85.8447 29.1957C89.8209 29.7735 91.4073 34.6544 88.5312 37.455L72.1062 53.452C70.9648 54.5644 70.4429 56.1682 70.7132 57.7382L74.5899 80.3269C75.2695 84.283 71.1131 87.2993 67.5574 85.4329L47.2556 74.7688C45.8439 74.0279 44.1561 74.0279 42.7444 74.7688L22.4426 85.4329C18.8869 87.3012 14.7305 84.283 15.4101 80.3269L19.2868 57.7382C19.5571 56.1682 19.0352 54.5644 17.8938 53.452L1.46883 37.455C-1.40728 34.6525 0.179082 29.7716 4.15532 29.1957L26.8544 25.8999C28.4333 25.6711 29.7981 24.6806 30.504 23.2513L40.6549 2.69978C42.4308 -0.899925 47.5673 -0.899925 49.3451 2.69978Z" fill="#F1C732"/>
</svg>
