<svg xmlns="http://www.w3.org/2000/svg" width="54" height="54" viewBox="0 0 54 54" fill="none"><path d="M54 27C54 12.1122 41.8878 0 27 0C12.1122 0 0 12.1122 0 27C0 41.8878 12.1122 54 27 54C27.3402 54 27.678 53.9868 28.0152 53.9742C28.0188 53.9742 28.0224 53.9754 28.0266 53.9754H46.047C46.323 53.9754 46.59 53.8806 46.8048 53.7066L52.5078 49.0662C52.9014 48.7458 53.0508 48.2118 52.881 47.733C52.7106 47.2542 52.2582 46.935 51.75 46.935H45.1896C50.5998 41.994 54 34.887 54 27ZM2.4 27C2.4 13.4358 13.4358 2.4 27 2.4C40.5642 2.4 51.6 13.4358 51.6 27C51.6 40.5642 40.5642 51.6 27 51.6C13.4358 51.6 2.4 40.5642 2.4 27ZM48.3738 49.335L45.6204 51.5754H38.1612C39.5586 50.9382 40.8948 50.1912 42.153 49.335H48.3738Z" fill="#DAB974"></path><path d="M27 19.1526C30.888 19.1526 34.0512 15.99 34.0512 12.1014C34.0512 8.2128 30.888 5.0502 27 5.0502C23.112 5.0502 19.9488 8.2128 19.9488 12.1014C19.9488 15.99 23.112 19.1526 27 19.1526ZM27 7.4502C29.5644 7.4502 31.6512 9.537 31.6512 12.1014C31.6512 14.6658 29.5644 16.7526 27 16.7526C24.4356 16.7526 22.3488 14.6658 22.3488 12.1014C22.3488 9.537 24.4356 7.4502 27 7.4502Z" fill="#DAB974"></path><path d="M19.536 24.5742C20.118 22.7832 19.9674 20.8722 19.1124 19.194C18.2574 17.5158 16.8 16.2708 15.0084 15.6888C14.3004 15.459 13.5672 15.3426 12.828 15.3426C9.7656 15.3426 7.0704 17.301 6.123 20.2158C4.9218 23.9136 6.9528 27.8994 10.6506 29.1012C11.3586 29.331 12.0918 29.4474 12.831 29.4474C15.894 29.4474 18.5886 27.489 19.536 24.5742ZM8.6856 24.507C8.1216 23.3994 8.0226 22.1394 8.406 20.958C9.0312 19.035 10.8084 17.7432 12.828 17.7432C13.3146 17.7432 13.7982 17.82 14.2662 17.9724C15.4482 18.3564 16.4094 19.1772 16.9734 20.2842C17.5374 21.3918 17.6364 22.6518 17.253 23.8332C16.6284 25.7562 14.8512 27.048 12.831 27.048C12.3444 27.048 11.8608 26.9712 11.3928 26.8188C10.2108 26.4348 9.2496 25.6134 8.6856 24.507Z" fill="#DAB974"></path><path d="M22.3872 33.3492C21.1746 32.4678 19.743 32.0022 18.2478 32.0022C15.9954 32.0022 13.8606 33.0894 12.5382 34.9092C11.4312 36.4332 10.9836 38.2968 11.2782 40.1568C11.5728 42.0168 12.5742 43.6512 14.0976 44.7582C15.3102 45.6396 16.7424 46.1052 18.2376 46.1052C20.49 46.1052 22.6248 45.018 23.9472 43.1982C26.2326 40.0524 25.5324 35.634 22.3872 33.3492ZM22.0056 41.7876C21.1332 42.9888 19.7244 43.7052 18.2382 43.7052C17.2524 43.7052 16.3092 43.398 15.5088 42.8166C14.5032 42.0864 13.8432 41.0088 13.6482 39.7818C13.4544 38.5542 13.749 37.3248 14.4798 36.3198C15.3522 35.1186 16.761 34.4022 18.2472 34.4022C19.2324 34.4022 20.1762 34.7094 20.976 35.2908C23.0508 36.798 23.5128 39.7128 22.0056 41.7876Z" fill="#DAB974"></path><path d="M35.7528 32.0004C34.2576 32.0004 32.826 32.466 31.6134 33.3474C30.09 34.4544 29.0886 36.0882 28.794 37.9488C28.4994 39.8088 28.9464 41.6724 30.0534 43.1964C31.3758 45.0162 33.5106 46.1034 35.763 46.1034C37.2582 46.1034 38.6904 45.6378 39.903 44.7564C41.4264 43.6494 42.4278 42.0156 42.7224 40.155C43.017 38.2944 42.5694 36.4314 41.4624 34.9074C40.1394 33.0876 38.0052 32.0004 35.7528 32.0004ZM40.3518 39.78C40.1574 41.007 39.4968 42.0846 38.4912 42.8148C37.6908 43.3968 36.7476 43.7034 35.7618 43.7034C34.275 43.7034 32.8668 42.987 31.9944 41.7858C31.2642 40.7808 30.969 39.5514 31.1634 38.3244C31.3578 37.0968 32.0184 36.0192 33.024 35.289C33.8238 34.707 34.7676 34.4004 35.7528 34.4004C37.2396 34.4004 38.6478 35.1168 39.5202 36.318C40.251 37.323 40.5456 38.5524 40.3518 39.78Z" fill="#DAB974"></path><path d="M41.1606 29.4474C41.8992 29.4474 42.633 29.331 43.341 29.1012C45.132 28.5192 46.59 27.2742 47.445 25.596C48.3 23.9178 48.4506 22.0074 47.8686 20.2158C46.9212 17.301 44.2266 15.3426 41.1636 15.3426C40.425 15.3426 39.6912 15.459 38.9832 15.6888C35.2854 16.8906 33.2544 20.8764 34.4556 24.5742C35.403 27.489 38.0976 29.4474 41.1606 29.4474ZM37.0176 20.2836C37.5816 19.1766 38.5428 18.3558 39.7248 17.9718C40.1928 17.8194 40.677 17.7426 41.163 17.7426C43.1826 17.7426 44.9598 19.0344 45.585 20.9574C45.969 22.1388 45.87 23.3988 45.3054 24.5064C44.742 25.6134 43.7802 26.4342 42.5982 26.8182C42.1302 26.9706 41.646 27.0474 41.16 27.0474C39.1404 27.0474 37.3632 25.7556 36.738 23.8326C36.3546 22.6512 36.4536 21.3906 37.0176 20.2836Z" fill="#DAB974"></path><path d="M31.5738 27C31.5738 24.4782 29.5218 22.4262 27 22.4262C24.4782 22.4262 22.4262 24.4782 22.4262 27C22.4262 29.5218 24.4782 31.5738 27 31.5738C29.5218 31.5738 31.5738 29.5218 31.5738 27ZM27 29.1738C25.8012 29.1738 24.8262 28.1988 24.8262 27C24.8262 25.8012 25.8012 24.8262 27 24.8262C28.1988 24.8262 29.1738 25.8012 29.1738 27C29.1738 28.1988 28.1988 29.1738 27 29.1738Z" fill="#DAB974"></path><path d="M15.525 12.6264C16.368 12.6264 17.0514 11.943 17.0514 11.1C17.0514 10.257 16.368 9.5736 15.525 9.5736C14.682 9.5736 13.9986 10.257 13.9986 11.1C13.9986 11.943 14.682 12.6264 15.525 12.6264Z" fill="#DAB974"></path><path d="M8.424 34.5276C9.26701 34.5276 9.9504 33.8442 9.9504 33.0012C9.9504 32.1582 9.26701 31.4748 8.424 31.4748C7.58099 31.4748 6.8976 32.1582 6.8976 33.0012C6.8976 33.8442 7.58099 34.5276 8.424 34.5276Z" fill="#DAB974"></path><path d="M27.0294 48.135C27.8724 48.135 28.5558 47.4516 28.5558 46.6086C28.5558 45.7656 27.8724 45.0822 27.0294 45.0822C26.1864 45.0822 25.503 45.7656 25.503 46.6086C25.503 47.4516 26.1864 48.135 27.0294 48.135Z" fill="#DAB974"></path><path d="M45.7206 34.6452C46.5636 34.6452 47.247 33.9618 47.247 33.1188C47.247 32.2758 46.5636 31.5924 45.7206 31.5924C44.8776 31.5924 44.1942 32.2758 44.1942 33.1188C44.1942 33.9618 44.8776 34.6452 45.7206 34.6452Z" fill="#DAB974"></path><path d="M38.6682 12.7008C39.5112 12.7008 40.1946 12.0174 40.1946 11.1744C40.1946 10.3314 39.5112 9.648 38.6682 9.648C37.8252 9.648 37.1418 10.3314 37.1418 11.1744C37.1418 12.0174 37.8252 12.7008 38.6682 12.7008Z" fill="#DAB974"></path></svg>