<svg width="20" height="23" viewBox="0 0 20 23" fill="none" xmlns="http://www.w3.org/2000/svg">
<path d="M20 9.43194C18.034 9.43667 16.1162 8.81974 14.5176 7.66831V15.6988C14.5171 17.1861 14.0653 18.6378 13.2226 19.8598C12.38 21.0818 11.1867 22.0158 9.80222 22.537C8.41778 23.0581 6.90821 23.1415 5.47537 22.7761C4.04254 22.4107 2.75472 21.6138 1.78412 20.4921C0.813528 19.3703 0.206419 17.9771 0.0439736 16.4988C-0.118471 15.0205 0.171491 13.5275 0.87509 12.2194C1.57869 10.9114 2.66238 9.8507 3.98127 9.17913C5.30016 8.50757 6.79138 8.25715 8.25552 8.46138V12.5004C7.58553 12.2884 6.86607 12.2948 6.1999 12.5187C5.53373 12.7426 4.95491 13.1726 4.54609 13.7473C4.13728 14.3219 3.91939 15.0119 3.92352 15.7186C3.92766 16.4253 4.15362 17.1126 4.56913 17.6824C4.98464 18.2522 5.56846 18.6753 6.2372 18.8913C6.90595 19.1073 7.62543 19.1052 8.2929 18.8852C8.96037 18.6652 9.54168 18.2387 9.95384 17.6664C10.366 17.0942 10.5879 16.4055 10.5879 15.6988V0H14.5176C14.5149 0.333917 14.5427 0.667379 14.6007 0.99617C14.7372 1.73015 15.0211 2.42838 15.4351 3.04815C15.849 3.66793 16.3843 4.19622 17.0081 4.60072C17.8955 5.19118 18.9361 5.5059 20 5.50567V9.43194Z" fill="#252422"/>
</svg>
