<svg width="24" height="17" viewBox="0 0 24 17" fill="none" xmlns="http://www.w3.org/2000/svg">
<path d="M23.4985 2.65992C23.2225 1.61292 22.4092 0.788331 21.3766 0.508495C19.505 0 12 0 12 0C12 0 4.49503 0 2.62336 0.508495C1.59077 0.788375 0.777523 1.61292 0.501503 2.65992C0 4.55768 0 8.51718 0 8.51718C0 8.51718 0 12.4767 0.501503 14.3744C0.777523 15.4214 1.59077 16.2117 2.62336 16.4915C4.49503 17 12 17 12 17C12 17 19.505 17 21.3766 16.4915C22.4092 16.2117 23.2225 15.4214 23.4985 14.3744C24 12.4767 24 8.51718 24 8.51718C24 8.51718 24 4.55768 23.4985 2.65992ZM9.54544 12.1121V4.92225L15.8181 8.51727L9.54544 12.1121Z" fill="#252422"/>
</svg>
