<svg width="308" height="349" viewBox="0 0 308 349" fill="none" xmlns="http://www.w3.org/2000/svg">
<path d="M133.913 348.174C129.131 348.174 123.391 346.261 119.565 342.435C111.913 334.783 111.913 322.348 119.565 313.739L259.217 174.087L119.565 34.4348C111.913 26.7826 111.913 14.3478 119.565 5.73913C127.217 -1.91304 139.652 -1.91304 148.261 5.73913L302.261 159.739C306.087 163.565 308 168.348 308 174.087C308 179.826 306.087 184.609 302.261 188.435L148.261 342.435C144.435 346.261 138.696 348.174 133.913 348.174Z" fill="#E0BB65"/>
<path d="M20.087 348.174C15.3043 348.174 9.56522 346.261 5.73913 342.435C-1.91304 334.783 -1.91304 322.348 5.73913 313.739L145.391 174.087L5.73913 34.4348C-1.91304 26.7826 -1.91304 14.3478 5.73913 5.73913C13.3913 -1.91304 25.8261 -1.91304 34.4348 5.73913L188.435 159.739C192.261 163.565 194.174 168.348 194.174 174.087C194.174 179.826 192.261 184.609 188.435 188.435L34.4348 342.435C30.6087 346.261 24.8696 348.174 20.087 348.174Z" fill="#E0BB65"/>
</svg>
