<svg width="108" height="128" viewBox="0 0 108 128" fill="none" xmlns="http://www.w3.org/2000/svg">
<path d="M89.2437 20.2168C81.9615 -0.138678 63.1851 -0.0546874 61.5338 0.00878261C44.9263 -0.379887 37.94 12.2373 35.9478 16.8809C25.9869 15.3584 20.5162 18.7744 18.0836 21.0322C14.0796 24.749 12.647 30.2246 12.1636 32.9355C10.001 33.3175 7.95113 34.1784 6.16425 35.4551C4.37738 36.7318 2.89873 38.3921 1.8366 40.3143C0.774469 42.2365 0.155767 44.372 0.0258063 46.5643C-0.104154 48.7566 0.257918 50.9501 1.0855 52.9844C4.61187 61.0869 13.5464 61.957 13.9253 61.9902C13.983 61.9951 14.0416 61.998 14.0992 61.998H14.1041L31.9556 61.9543V57.9545L14.2017 57.998C13.3873 57.9033 7.1978 57.0059 4.75347 51.3887C4.22142 50.1232 3.95029 48.7633 3.95633 47.3905C3.96237 46.0177 4.24546 44.6602 4.78863 43.3994C5.5003 41.4912 6.76358 39.8378 8.41774 38.6497C10.0719 37.4616 12.0421 36.7925 14.0777 36.7275C14.5517 36.6914 14.9975 36.4879 15.3352 36.1534C15.673 35.8188 15.8808 35.375 15.9214 34.9014C15.9273 34.8311 16.5689 27.8955 20.8043 23.9639C22.3531 22.5264 25.5377 20.501 31.1783 20.501C33.0773 20.514 34.9705 20.7135 36.8306 21.0967C37.3173 21.1918 37.8221 21.1033 38.2474 20.8484C38.6728 20.5934 38.9888 20.1899 39.1343 19.7158C39.3365 19.0557 44.2896 3.5332 61.4868 4.00882C61.5454 4.01275 61.6042 4.01177 61.6626 4.00589C61.8452 3.99612 79.5396 3.13675 85.8413 22.6329C85.9618 23.0052 86.1889 23.334 86.4944 23.5786C86.7999 23.8232 87.1704 23.9728 87.5601 24.0089C87.6802 24.0206 99.5493 25.2345 103.062 35.6026C104.398 39.6379 104.234 44.0196 102.599 47.9435C100.75 52.4747 96.1099 57.8312 84.4927 57.8312C84.3199 57.8312 84.1461 57.8292 83.9713 57.8273L75.9556 57.8468V61.8467L83.9488 61.8271C84.1392 61.8291 84.3277 61.8311 84.5142 61.8311C99.0591 61.8311 104.405 54.1025 106.302 49.4551C108.3 44.6399 108.495 39.2656 106.851 34.3183C103.239 23.6602 92.9342 20.8799 89.2437 20.2168Z" fill="#E0BB65"/>
<path d="M71.9556 53.998C71.9555 53.4676 71.7448 52.9589 71.3698 52.5839C70.9947 52.2088 70.486 51.9981 69.9556 51.998H66.9556V35.998C66.9555 35.4676 66.7448 34.9589 66.3698 34.5839C65.9947 34.2088 65.486 33.9981 64.9556 33.998H42.9556C42.4251 33.9981 41.9164 34.2088 41.5414 34.5839C41.1663 34.9589 40.9556 35.4676 40.9556 35.998V51.998H37.9556C37.4251 51.9981 36.9164 52.2088 36.5414 52.5839C36.1663 52.9589 35.9556 53.4676 35.9556 53.998V117.998C35.9587 120.649 37.0133 123.191 38.8879 125.066C40.7626 126.94 43.3044 127.995 45.9556 127.998H61.9556C64.6068 127.995 67.1485 126.94 69.0232 125.066C70.8979 123.191 71.9525 120.649 71.9556 117.998V53.998ZM44.9556 37.998H62.9556V51.998H44.9556V37.998ZM67.9556 117.998C67.9538 119.589 67.3211 121.114 66.1963 122.239C65.0714 123.364 63.5463 123.996 61.9556 123.998H45.9556C44.3648 123.996 42.8397 123.364 41.7148 122.239C40.59 121.114 39.9573 119.589 39.9556 117.998V55.998H67.9556V117.998Z" fill="#E0BB65"/>
<path d="M51.9556 42.998H47.9556V46.998H51.9556V42.998Z" fill="#E0BB65"/>
<path d="M59.9556 42.998H55.9556V46.998H59.9556V42.998Z" fill="#E0BB65"/>
<path d="M59.9556 77.998C59.4252 77.9981 58.9165 78.2088 58.5414 78.5839C58.1663 78.9589 57.9556 79.4676 57.9556 79.998V83.998C57.9563 84.3036 58.0275 84.6049 58.1635 84.8786C58.2995 85.1522 58.4967 85.3908 58.7399 85.5759C58.3128 85.898 57.8255 86.2366 57.2837 86.6074C56.853 86.9018 56.4033 87.21 55.9556 87.5386V75.998C56.2965 75.998 56.6318 75.9109 56.9295 75.7449C57.2273 75.5788 57.4777 75.3395 57.6569 75.0495C57.8362 74.7595 57.9383 74.4285 57.9537 74.0879C57.969 73.7473 57.8971 73.4085 57.7446 73.1035L55.7446 69.1035C55.5785 68.7713 55.3231 68.492 55.0071 68.2967C54.6911 68.1015 54.327 67.998 53.9556 67.998C53.5841 67.998 53.22 68.1015 52.9041 68.2967C52.5881 68.492 52.3327 68.7713 52.1665 69.1035L50.1665 73.1035C50.0141 73.4085 49.9421 73.7473 49.9575 74.0879C49.9728 74.4285 50.075 74.7595 50.2542 75.0495C50.4335 75.3395 50.6839 75.5788 50.9816 75.7449C51.2794 75.9109 51.6147 75.998 51.9556 75.998V101.539C51.5078 101.21 51.0581 100.902 50.6275 100.607C48.5089 99.1576 47.2088 98.1939 47.2093 96.8193C48.3211 96.5299 49.2992 95.8661 49.9788 94.9397C50.6583 94.0134 50.9978 92.8811 50.94 91.7337C50.8821 90.5862 50.4306 89.4938 49.6614 88.6405C48.8921 87.7871 47.8523 87.225 46.717 87.0488C45.5817 86.8726 44.4204 87.0931 43.4287 87.6732C42.437 88.2533 41.6756 89.1575 41.2727 90.2334C40.8699 91.3094 40.8502 92.4913 41.217 93.58C41.5839 94.6688 42.3148 95.5978 43.2866 96.2106C43.2381 96.3738 43.2109 96.5427 43.2056 96.7129C43.1431 100.334 46.0406 102.316 48.3687 103.908C50.0064 105.028 51.166 105.886 51.6704 106.866C50.69 107.43 49.9304 108.311 49.5164 109.363C49.1023 110.416 49.0584 111.578 49.3918 112.659C49.7252 113.739 50.4161 114.675 51.3511 115.311C52.2862 115.947 53.4098 116.247 54.5375 116.161C55.6652 116.074 56.7301 115.607 57.5573 114.836C58.3845 114.064 58.9249 113.035 59.0898 111.916C59.2547 110.797 59.0343 109.655 58.4648 108.678C57.8953 107.701 57.0105 106.946 55.9556 106.538V93.998C55.9556 92.4717 57.311 91.4346 59.5425 89.9082C61.2223 88.9172 62.6758 87.5852 63.8092 85.998H63.9556C64.486 85.998 64.9947 85.7873 65.3698 85.4122C65.7448 85.0372 65.9556 84.5285 65.9556 83.998V79.998C65.9556 79.4676 65.7448 78.9589 65.3698 78.5839C64.9947 78.2088 64.486 77.9981 63.9556 77.998H59.9556ZM45.9556 90.998C46.1534 90.998 46.3467 91.0567 46.5111 91.1666C46.6756 91.2765 46.8038 91.4326 46.8795 91.6154C46.9551 91.7981 46.975 91.9991 46.9364 92.1931C46.8978 92.3871 46.8025 92.5653 46.6627 92.7051C46.5228 92.845 46.3447 92.9402 46.1507 92.9788C45.9567 93.0174 45.7556 92.9976 45.5729 92.9219C45.3902 92.8462 45.234 92.7181 45.1241 92.5536C45.0142 92.3892 44.9556 92.1958 44.9556 91.998C44.9558 91.7329 45.0612 91.4786 45.2487 91.2911C45.4362 91.1036 45.6904 90.9982 45.9556 90.998ZM54.1431 112.186C53.9453 112.186 53.7519 112.127 53.5875 112.017C53.4231 111.907 53.2949 111.751 53.2192 111.568C53.1435 111.385 53.1237 111.184 53.1623 110.99C53.2009 110.796 53.2961 110.618 53.436 110.478C53.5758 110.339 53.754 110.243 53.948 110.205C54.142 110.166 54.343 110.186 54.5258 110.262C54.7085 110.337 54.8647 110.466 54.9745 110.63C55.0844 110.794 55.1431 110.988 55.1431 111.186C55.1429 111.451 55.0375 111.705 54.85 111.892C54.6625 112.08 54.4082 112.185 54.1431 112.186Z" fill="#E0BB65"/>
</svg>
