<svg width="88" height="43" viewBox="0 0 88 43" fill="none" xmlns="http://www.w3.org/2000/svg">
<path d="M87.76 23.11V20.11H76.85V13.24H80.76V10.24H76.85V0H33.92V35.79H51.33C51.5883 37.2119 52.212 38.5421 53.14 39.65H21.89C22.818 38.5421 23.4417 37.2119 23.7 35.79H30.96V4.85H10.73L0 19.85V35.85H7.27C7.6207 37.7728 8.63405 39.512 10.1339 40.7653C11.6338 42.0185 13.5254 42.7066 15.48 42.71H81.26V39.71H65.95C66.8779 38.6021 67.5017 37.2719 67.76 35.85H76.85V31.85H84.75V28.85H76.85V23.11H87.76ZM12.27 7.85H17.71V18.85H4.42L12.27 7.85ZM15.48 39.66C14.4186 39.66 13.3811 39.3449 12.499 38.7546C11.617 38.1643 10.93 37.3254 10.5252 36.3442C10.1204 35.363 10.016 34.2838 10.2253 33.2432C10.4346 32.2027 10.948 31.2477 11.7006 30.4993C12.4533 29.7509 13.4111 29.2428 14.4528 29.0394C15.4945 28.8359 16.5732 28.9464 17.5521 29.3567C18.5309 29.767 19.366 30.4586 19.9513 31.344C20.5366 32.2294 20.8459 33.2686 20.84 34.33C20.8321 35.7464 20.2639 37.102 19.2595 38.1007C18.2552 39.0994 16.8964 39.66 15.48 39.66ZM21.36 28.33C21.1933 28.1633 21.0167 28.0033 20.83 27.85L20.63 27.72L20.23 27.42L19.97 27.25L19.58 27.01L19.3 26.86L18.89 26.66L18.59 26.53L18.16 26.37L17.85 26.27L17.39 26.15L17.09 26.08L16.56 26H16.3C16.03 26 15.76 26 15.49 26C15.22 26 14.95 26 14.68 26H14.42L13.89 26.08L13.59 26.15L13.13 26.27L12.82 26.37L12.39 26.53L12.09 26.66L11.68 26.86L11.4 27.01L11.01 27.25L10.75 27.42L10.35 27.72L10.14 27.88C9.96 28.0333 9.78333 28.1933 9.61 28.36L9.54 28.43C9.37333 28.5967 9.21667 28.77 9.07 28.95L8.91 29.16C8.81 29.29 8.71 29.42 8.61 29.56L8.44 29.82L8.2 30.21L8.05 30.49C7.98 30.62 7.91 30.76 7.85 30.9L7.72 31.2C7.66 31.34 7.61 31.49 7.56 31.63L7.46 31.93C7.46 32.08 7.38 32.24 7.34 32.4C7.3 32.56 7.34 32.59 7.27 32.69V32.79H3V21.79H20.71V7.79H27.96V32.79H23.7V32.69C23.7 32.59 23.7 32.49 23.63 32.38C23.56 32.27 23.56 32.07 23.51 31.92L23.41 31.61C23.41 31.47 23.31 31.33 23.25 31.19L23.12 30.89L22.93 30.49L22.78 30.2L22.54 29.81L22.37 29.55C22.28 29.42 22.18 29.29 22.08 29.16L21.91 28.95C21.7567 28.77 21.6 28.5967 21.44 28.43L21.36 28.33ZM59.54 39.66C58.1198 39.66 56.7577 39.0958 55.7534 38.0916C54.7492 37.0873 54.185 35.7252 54.185 34.305C54.185 32.8848 54.7492 31.5227 55.7534 30.5184C56.7577 29.5142 58.1198 28.95 59.54 28.95C60.2432 28.95 60.9396 29.0885 61.5893 29.3576C62.239 29.6267 62.8293 30.0212 63.3266 30.5184C63.8238 31.0157 64.2183 31.606 64.4874 32.2557C64.7565 32.9054 64.895 33.6018 64.895 34.305C64.895 35.0082 64.7565 35.7046 64.4874 36.3543C64.2183 37.004 63.8238 37.5943 63.3266 38.0916C62.8293 38.5888 62.239 38.9833 61.5893 39.2524C60.9396 39.5215 60.2432 39.66 59.54 39.66ZM73.85 10.24H53.01V13.24H73.85V20.12H48.01V23.12H73.85V32.8H67.76V32.7C67.76 32.6 67.76 32.5 67.69 32.4C67.62 32.3 67.62 32.09 67.57 31.94L67.47 31.63C67.47 31.49 67.37 31.34 67.31 31.2L67.18 30.9L66.98 30.49L66.83 30.21L66.63 29.82L66.47 29.57C66.37 29.43 66.27 29.3 66.17 29.17L66.01 28.97C65.85 28.7833 65.6833 28.6 65.51 28.42C65.33 28.24 65.15 28.08 64.96 27.92L64.76 27.76L64.36 27.46L64.11 27.3L63.71 27.06L63.43 26.91L63.02 26.71L62.72 26.58L62.29 26.42L61.99 26.32L61.53 26.2L61.23 26.13L60.63 26.02H60.37C60.1 26.02 59.83 26.02 59.56 26.02C58.464 26.0034 57.3755 26.2043 56.3576 26.6111C55.3398 27.0179 54.4127 27.6225 53.63 28.39C53.3644 28.6598 53.1171 28.9471 52.89 29.25L52.73 29.46C52.5126 29.7598 52.3155 30.0739 52.14 30.4L52.09 30.51C51.9377 30.8115 51.8041 31.1221 51.69 31.44L51.6 31.68C51.4833 32.0267 51.3898 32.3809 51.32 32.74V32.79H36.92V3H73.85V10.24Z" fill="#E0BB65"/>
</svg>
