<svg width="58" height="42" viewBox="0 0 58 42" fill="none" xmlns="http://www.w3.org/2000/svg">
<path d="M55 0H3C1.35 0 0 1.35 0 3V39C0 40.65 1.35 42 3 42H55C56.65 42 58 40.65 58 39V3C58 1.35 56.65 0 55 0ZM2 3C2 2.45 2.45 2 3 2H55C55.55 2 56 2.45 56 3V6H2V3ZM17.28 40L17.78 38H40.22L40.72 40H17.28ZM55 40H42.78L41.97 36.76C41.86 36.31 41.46 36 41 36H17C16.54 36 16.14 36.31 16.03 36.76L15.22 40H3C2.45 40 2 39.55 2 39V8H56V39C56 39.55 55.55 40 55 40Z" fill="#E0BB65"/>
<path d="M47 12H11C8.24 12 6 14.24 6 17V29C6 31.76 8.24 34 11 34H47C49.76 34 52 31.76 52 29V17C52 14.24 49.76 12 47 12ZM38 25.82C38.31 25.93 38.65 26 39 26C40.65 26 42 24.65 42 23C42 21.35 40.65 20 39 20C38.65 20 38.31 20.07 38 20.18V18.1C38.32 18.03 38.66 18 39 18C41.76 18 44 20.24 44 23C44 25.76 41.76 28 39 28C38.66 28 38.32 27.97 38 27.9V25.82ZM38 23C38 22.45 38.45 22 39 22C39.55 22 40 22.45 40 23C40 23.55 39.55 24 39 24C38.45 24 38 23.55 38 23ZM20 20.18C19.69 20.07 19.35 20 19 20C17.35 20 16 21.35 16 23C16 24.65 17.35 26 19 26C19.35 26 19.69 25.93 20 25.82V27.9C19.68 27.97 19.34 28 19 28C16.24 28 14 25.76 14 23C14 20.24 16.24 18 19 18C19.34 18 19.68 18.03 20 18.1V20.18ZM20 23C20 23.55 19.55 24 19 24C18.45 24 18 23.55 18 23C18 22.45 18.45 22 19 22C19.55 22 20 22.45 20 23ZM8 29V17C8 15.35 9.35 14 11 14H20V16.09C19.67 16.04 19.34 16 19 16C15.14 16 12 19.14 12 23C12 26.86 15.14 30 19 30C19.34 30 19.67 29.96 20 29.91V32H11C9.35 32 8 30.65 8 29ZM22 14H36V32H22V14ZM50 29C50 30.65 48.65 32 47 32H38V29.91C38.33 29.96 38.66 30 39 30C42.86 30 46 26.86 46 23C46 19.14 42.86 16 39 16C38.66 16 38.33 16.04 38 16.09V14H47C48.65 14 50 15.35 50 17V29Z" fill="#E0BB65"/>
<path d="M32 24H26C25.45 24 25 24.45 25 25C25 25.55 25.45 26 26 26H32C32.55 26 33 25.55 33 25C33 24.45 32.55 24 32 24Z" fill="#E0BB65"/>
<path d="M32 20H26C25.45 20 25 20.45 25 21C25 21.55 25.45 22 26 22H32C32.55 22 33 21.55 33 21C33 20.45 32.55 20 32 20Z" fill="#E0BB65"/>
</svg>
